# xmcd
#
# Track frame offsets:
#	150
#	20537
#	36297
#	56455
#	75645
#	92362
#	96617
#	111197
#	132265
#	134850
#	149822
#	169767
#	189820
#	211697
#
# Disc length: 3032 seconds
#
# Revision: 1
# Processed by: cddbd v1.4PL0 Copyright (c) Steve Scherf et al.
# Submitted via: EasyCDDAExtractor 5.0.6
#
DISCID=c60bd60e
DTITLE=LINAE - LINAE 2nd
DYEAR=2003
DGENRE=ballad
TTITLE0=이별하는날
TTITLE1=연인
TTITLE2=사랑이야기(이별후愛II)
TTITLE3=체온
TTITLE4=Tell Me
TTITLE5=On Monday(inst)
TTITLE6=Blue
TTITLE7=너를 생각나게 하는 것들
TTITLE8=숲속의 아침(Inst)
TTITLE9=사랑은 꾸며가기 나름인거죠
TTITLE10=Simple Thing(feat.불독맨션)
TTITLE11=비밀
TTITLE12=지켜주세요
TTITLE13=When I Found U(feat.Annie)
EXTD=
EXTT0=
EXTT1=
EXTT2=
EXTT3=
EXTT4=
EXTT5=
EXTT6=
EXTT7=
EXTT8=
EXTT9=
EXTT10=
EXTT11=
EXTT12=
EXTT13=
PLAYORDER=
